Coordinates
version=1
nRows=19
nColumns=36
inDegrees=yes

Units are S.I. units (second, meters, Newtons, ...)
If the header above contains a line with 'inDegrees', this indicates whether rotational values are in degrees (yes) or radians (no).

endheader
time	pelvis_tilt	pelvis_list	pelvis_rotation	pelvis_tx	pelvis_ty	pelvis_tz	hip_flexion_r	hip_adduction_r	hip_rotation_r	knee_angle_r	knee_angle_r_beta	ankle_angle_r	subtalar_angle_r	mtp_angle_r	hip_flexion_l	hip_adduction_l	hip_rotation_l	knee_angle_l	knee_angle_l_beta	ankle_angle_l	subtalar_angle_l	mtp_angle_l	lumbar_extension	lumbar_bending	lumbar_rotation	arm_flex_r	arm_add_r	arm_rot_r	elbow_flex_r	pro_sup_r	arm_flex_l	arm_add_l	arm_rot_l	elbow_flex_l	pro_sup_l
      2.04000000	    -24.29200191	     -1.07931329	      0.21277766	     -0.25809761	      0.67391707	     -0.53284507	     77.13657964	      0.22401076	      3.60904379	     91.45068233	      1.59611551	     31.20484214	    -23.23089656	     -7.44274631	     78.34466332	    -10.95907373	      8.90573536	     88.93466167	      1.55220267	     27.52602914	    -15.24058093	     -7.44274631	    -14.76372789	      2.62091243	     -4.29293828	    123.09029409	    -20.47031853	     32.20878106	     81.92104109	     93.79632931	    117.42406021	    -24.22587777	     24.51610399	     53.32517508	     84.61183230
      2.05000000	    -24.30567380	     -0.72244392	      0.13924451	     -0.25214504	      0.68485318	     -0.53220381	     75.59137647	      0.34409540	      4.03786550	     89.61848442	      1.56413762	     30.64250575	    -23.32143541	     -7.44394207	     76.51527274	    -10.57796155	      8.52843487	     87.02442450	      1.51886274	     26.85202392	    -15.74698761	     -7.44394207	    -13.94200427	      2.56193796	     -3.89767347	    129.82509537	    -19.56246995	     34.64260218	     82.39172489	     93.93236348	    122.32340171	    -24.74153679	     26.94494873	     54.50844875	     84.87416322
      2.06000000	    -24.24480222	     -0.48032052	      0.04070326	     -0.24590061	      0.69687930	     -0.53127295	     73.84785821	      0.61026262	      4.56729217	     87.61939126	      1.52924687	     29.76797413	    -23.36072452	     -7.44512497	     74.53252551	    -10.25455775	      8.31117348	     84.86405753	      1.48115722	     25.71476357	    -16.55743918	     -7.44512497	    -13.19966643	      2.61426581	     -3.33147100	    136.59270864	    -18.59292107	     37.35238643	     82.08291671	     94.01531827	    127.52683265	    -25.33781102	     30.39650865	     54.69994926	     85.07708832
      2.07000000	    -24.27920660	     -0.29210101	     -0.04105066	     -0.23915600	      0.70976640	     -0.53025314	     72.09078991	      0.80816396	      4.92880516	     85.37433201	      1.49006319	     28.61069134	    -23.69063900	     -7.44646710	     72.53495302	     -9.95470338	      8.10930245	     82.44393675	      1.43891814	     24.27034252	    -17.71062626	     -7.44646710	    -12.16207556	      2.70325336	     -2.72274079	    142.70546627	    -17.27753297	     39.60073451	     81.11097803	     94.03100680	    132.61436430	    -25.75463523	     34.57504616	     53.95821375	     85.18587139
      2.08000000	    -24.43406065	     -0.01979195	     -0.06767198	     -0.23201089	      0.72343587	     -0.52919555	     70.39518476	      0.87751839	      5.21494509	     82.86110841	      1.44619916	     26.64992925	    -24.85034321	     -7.44902628	     70.47858388	     -9.56811547	      7.79028833	     79.66258657	      1.39037443	     22.25300841	    -19.46921811	     -7.44902628	    -10.85175552	      2.60144635	     -2.52844747	    147.87324706	    -15.81098930	     41.15290450	     79.84867552	     94.01772306	    138.04851736	    -26.26321288	     40.38325043	     52.42671713	     85.37533300
      2.09000000	    -24.28694862	      0.31468572	     -0.11102364	     -0.22429781	      0.73847650	     -0.52810956	     68.25583879	      0.83407335	      5.48996958	     80.12114607	      1.39837780	     24.43953116	    -25.87850074	     -7.45351477	     67.88015861	     -9.26826972	      7.25196680	     76.53901251	      1.33585777	     20.42091010	    -20.79748002	     -7.45351477	     -9.84534775	      2.39122494	     -2.55874826	    152.47418976	    -14.11560561	     42.18740272	     77.74307611	     93.90077351	    143.44476058	    -26.43094465	     45.91196158	     50.29637660	     86.00709398
      2.10000000	    -24.09842806	      0.55260810	     -0.22031337	     -0.21617875	      0.75438989	     -0.52699294	     65.93862189	      0.79533842	      5.68590500	     77.13900638	      1.34632964	     22.56809810	    -26.14588564	     -7.45571175	     65.10853037	     -9.11391015	      6.74243649	     73.15151237	      1.27673474	     18.77851002	    -21.53915192	     -7.45571175	     -8.81629600	      2.21389904	     -1.98093572	    157.33737481	    -13.04486884	     44.56359234	     75.08746331	     93.77800314	    148.02212466	    -25.57318563	     50.20250195	     47.27814724	     86.34077686
      2.11000000	    -23.81574043	      0.88304078	     -0.30341254	     -0.20773341	      0.77142524	     -0.52574141	     63.41489029	      0.59662997	      5.86062438	     73.87736556	      1.28940327	     20.07328226	    -26.73824832	     -7.45621038	     62.04525462	     -8.93084133	      6.06544745	     69.34854534	      1.21036045	     16.57142626	    -22.42989580	     -7.45621038	     -7.80738847	      1.87698184	     -2.02896203	    161.18280941	    -11.78282181	     46.06732513	     72.05286306	     94.41612113	    152.79011240	    -24.67330250	     55.44883010	     43.51134721	     87.08977358
      2.12000000	    -23.39380893	      1.30671652	     -0.33462753	     -0.19892818	      0.78961933	     -0.52438080	     60.62856618	      0.18212287	      5.92284827	     70.33431958	      1.22756545	     17.40377321	    -27.29909965	     -7.45848131	     58.63123565	     -8.68200423	      5.27003783	     65.09022035	      1.13603866	     14.18265526	    -23.05413798	     -7.45848131	     -6.83601646	      1.47519908	     -3.01104953	    163.63726042	    -10.12272154	     46.03837871	     68.76765342	     95.03474462	    157.87131978	    -24.12571857	     62.77300203	     39.57549329	     87.24669282
      2.13000000	    -22.96539442	      1.66848061	     -0.33681473	     -0.18979562	      0.80873630	     -0.52297413	     57.70000220	     -0.35373987	      5.70325261	     66.43942393	      1.15958670	     14.49603536	    -27.49088473	     -7.46194024	     55.09895774	     -8.50278510	      4.47037632	     60.48871681	      1.05572727	     11.52680221	    -23.09010443	     -7.46194024	     -5.76351550	      1.13529247	     -3.81163096	    165.80535583	     -8.87722009	     46.50552130	     65.15114385	     95.59009614	    162.00852487	    -23.23127818	     69.82938010	     35.72207455	     86.33700571
      2.14000000	    -22.29662827	      2.00305110	     -0.41582913	     -0.18018034	      0.82925532	     -0.52143556	     54.34340199	     -0.94137914	      5.29817458	     62.15764594	      1.08485558	     11.82010500	    -26.85628026	     -7.46212304	     51.15945938	     -8.46778271	      3.47806979	     55.54117983	      0.96937646	      8.77267001	    -22.38057712	     -7.46212304	     -4.82033747	      0.76759805	     -3.81495607	    167.92222172	     -8.21870935	     48.11451936	     61.16278080	     95.80866291	    163.90177006	    -21.92705496	     72.30818337	     32.62046954	     86.19072707
      2.15000000	    -21.56767223	      2.38844140	     -0.38042144	     -0.17041084	      0.85094569	     -0.51973141	     50.77701906	     -1.67886091	      4.77968650	     57.44325643	      1.00257396	      7.63556461	    -26.93834882	     -7.46578401	     47.07457786	     -8.38793210	      2.16928155	     50.10907151	      0.87456828	      4.49641402	    -21.98672744	     -7.46578401	     -3.99200173	      0.20394987	     -4.91669363	    168.95252198	     -8.00749676	     48.85162668	     57.99217411	     96.32242024	    167.36569064	    -20.58464436	     82.16488075	     28.59596947	     85.13202512
      2.16000000	    -20.35610048	      2.76183865	     -0.28983337	     -0.16004573	      0.87456613	     -0.51801492	     46.40270628	     -2.56906760	      3.99068332	     52.15856113	      0.91033862	      4.24476680	    -25.54754094	     -7.46595515	     42.33076296	     -8.32304353	      0.59658938	     44.27326859	      0.77271431	      0.23660821	    -19.90034677	     -7.46595515	     -3.64083825	     -0.20458231	     -5.30046112	    170.04358608	     -7.83331992	     50.48487177	     54.35227073	     96.46467320	    168.20756054	    -19.71950780	     83.78888113	     26.49134158	     85.11772589
      2.17000000	    -19.20524405	      3.13790181	     -0.16208457	     -0.14964803	      0.89916792	     -0.51627262	     41.90103431	     -3.52258406	      2.85884522	     46.23427369	      0.80694030	     -1.34076040	    -24.92566704	     -7.46591708	     37.58826405	     -8.16038062	     -1.02786275	     37.95990981	      0.66252541	     -6.14331013	    -18.29305432	     -7.46591708	     -3.19623329	     -0.59029567	     -5.39453438	    171.19262570	     -7.96777029	     53.87291274	     50.22195864	     97.13499854	    168.84684300	    -19.07821473	     88.28254200	     23.60626241	     85.67439311
      2.18000000	    -17.76325080	      3.45806924	      0.07211859	     -0.13916154	      0.92505513	     -0.51458676	     36.83916847	     -4.53448852	      1.29729718	     39.73702811	      0.69354198	     -6.80472918	    -22.68623750	     -7.46724639	     32.53827220	     -8.08145892	     -3.02304843	     31.24197112	      0.54527526	    -12.82242996	    -14.39472674	     -7.46724639	     -3.05898657	     -1.01842865	     -6.07427588	    171.41740274	     -8.45881066	     56.31276505	     46.84297467	     96.89266860	    169.18918952	    -18.78651366	     91.69021507	     21.24497960	     85.58546452
      2.19000000	    -16.29585887	      3.77138205	      0.32431181	     -0.12871310	      0.95154571	     -0.51289394	     31.59965500	     -5.51680449	     -0.54372813	     32.74248063	      0.57146409	    -12.72796754	    -18.86096124	     -7.46628046	     27.47129996	     -8.05580556	     -5.44382329	     23.99058105	      0.41871463	    -20.48344940	     -9.15435983	     -7.46628046	     -2.91477533	     -1.38869481	     -6.74568210	    171.12895070	     -9.19928479	     58.64864541	     44.57706765	     97.74530818	    168.90449591	    -19.00863409	     93.02835067	     19.47595093	     86.03608931
      2.20000000	    -14.98833631	      4.17830429	      0.62165611	     -0.11830341	      0.97801362	     -0.51126669	     26.42564138	     -6.52082653	     -2.60422219	     25.16841006	      0.43927162	    -20.02070761	    -14.42148513	     -7.47828914	     22.57238027	     -7.84676792	     -8.09778780	     16.14470863	      0.28177832	    -29.35918446	     -3.27424696	     -7.47828914	     -2.63529766	     -1.83833139	     -6.83918338	    171.55758595	    -10.65387720	     64.53279160	     43.43629253	     92.60328757	    168.09801846	    -19.38083240	     94.23337834	     18.59310385	     77.18052695
      2.21000000	    -13.85385950	      4.75168826	      1.07171136	     -0.10792733	      1.00420079	     -0.51006042	     21.42168823	     -7.67361439	     -5.11808180	     17.19418930	      0.30009522	    -28.14747657	     -8.84774497	     -7.48072865	     17.82491312	     -7.22992884	    -11.24147514	      7.83939488	      0.13682325	    -38.87972450	      2.46289191	     -7.48072865	     -2.19558428	     -2.38957405	     -7.27521895	    171.64261630	    -12.14680992	     69.77161969	     41.89522482	     93.52276588	    167.20529117	    -20.32879480	     93.60130580	     17.59796080	     73.16071590
      2.22000000	    -12.99023276	      5.23868142	      1.71763293	     -0.09825867	      1.02954752	     -0.50939000	     16.76762324	     -8.60980951	     -8.23125301	      9.03609208	      0.15770956	    -36.71241987	     -3.09095076	     -7.47913430	     14.01652359	     -6.53452408	    -15.04798065	      1.28675063	      0.02245804	    -44.96933104	      7.87031189	     -7.47913430	     -1.55802384	     -2.86078064	     -8.42762401	    171.05491428	    -13.79014555	     73.86792100	     40.21022643	     95.80109237	    166.91605447	    -21.64647366	     95.93156999	     16.30837343	     73.29406952
